Oxygen-Light.ufo
<glyph name="quotedbl" format="1">
  <advance width="676"/>
  <unicode hex="0022"/>
  <outline>
    <contour>
<<<<<<< HEAD
      <point x="168" y="1034" type="line" smooth="no"/>
      <point x="153" y="1514" type="line" smooth="no"/>
      <point x="271" y="1514" type="line" smooth="no"/>
      <point x="239" y="1034" type="line" smooth="no"/>
    </contour>
    <contour>
      <point x="427" y="1034" type="line" smooth="no"/>
      <point x="412" y="1514" type="line" smooth="no"/>
      <point x="530" y="1514" type="line" smooth="no"/>
      <point x="498" y="1034" type="line" smooth="no"/>
=======
      <point x="168" y="1034" type="line"/>
      <point x="153" y="1514" type="line"/>
      <point x="271" y="1514" type="line"/>
      <point x="239" y="1034" type="line"/>
    </contour>
    <contour>
      <point x="427" y="1034" type="line"/>
      <point x="412" y="1514" type="line"/>
      <point x="530" y="1514" type="line"/>
      <point x="498" y="1034" type="line"/>
>>>>>>> 91749908f94e59e2ae39cb29b03bd24938bc6ec0
    </contour>
  </outline>
</glyph>
<glyph name="parenright" format="1">
  <advance width="590"/>
  <unicode hex="0029"/>
  <outline>
    <contour>
<<<<<<< HEAD
      <point x="95" y="-239" type="line" smooth="no"/>
=======
      <point x="95" y="-239" type="line"/>
>>>>>>> 91749908f94e59e2ae39cb29b03bd24938bc6ec0
      <point x="282" y="73"/>
      <point x="348" y="365"/>
      <point x="348" y="633" type="curve" smooth="yes"/>
      <point x="348" y="924"/>
      <point x="288" y="1185"/>
<<<<<<< HEAD
      <point x="94" y="1514" type="curve" smooth="no"/>
      <point x="212" y="1514" type="line" smooth="no"/>
=======
      <point x="94" y="1514" type="curve"/>
      <point x="212" y="1514" type="line"/>
>>>>>>> 91749908f94e59e2ae39cb29b03bd24938bc6ec0
      <point x="384" y="1253"/>
      <point x="482" y="949"/>
      <point x="482" y="627" type="curve" smooth="yes"/>
      <point x="482" y="313"/>
      <point x="378" y="-4"/>
<<<<<<< HEAD
      <point x="210" y="-239" type="curve" smooth="no"/>
=======
      <point x="210" y="-239" type="curve"/>
>>>>>>> 91749908f94e59e2ae39cb29b03bd24938bc6ec0
    </contour>
  </outline>
</glyph>
<glyph name="plus" format="1">
  <advance width="1101"/>
<<<<<<< HEAD
  <unicode hex="002b"/>
  <outline>
    <contour>
      <point x="500.5" y="157" type="line" smooth="no"/>
      <point x="500.5" y="600" type="line" smooth="no"/>
      <point x="108.5" y="600" type="line" smooth="no"/>
      <point x="108.5" y="700" type="line" smooth="no"/>
      <point x="501.5" y="700" type="line" smooth="no"/>
      <point x="501.5" y="1135" type="line" smooth="no"/>
      <point x="610.5" y="1135" type="line" smooth="no"/>
      <point x="610.5" y="700" type="line" smooth="no"/>
      <point x="992.5" y="700" type="line" smooth="no"/>
      <point x="992.5" y="600" type="line" smooth="no"/>
      <point x="609.5" y="600" type="line" smooth="no"/>
      <point x="609.5" y="157" type="line" smooth="no"/>
=======
  <unicode hex="002B"/>
  <outline>
    <contour>
      <point x="500.5" y="157" type="line"/>
      <point x="500.5" y="600" type="line"/>
      <point x="108.5" y="600" type="line"/>
      <point x="108.5" y="700" type="line"/>
      <point x="501.5" y="700" type="line"/>
      <point x="501.5" y="1135" type="line"/>
      <point x="610.5" y="1135" type="line"/>
      <point x="610.5" y="700" type="line"/>
      <point x="992.5" y="700" type="line"/>
      <point x="992.5" y="600" type="line"/>
      <point x="609.5" y="600" type="line"/>
      <point x="609.5" y="157" type="line"/>
>>>>>>> 91749908f94e59e2ae39cb29b03bd24938bc6ec0
    </contour>
  </outline>
</glyph>
<glyph name="one" format="1">
  <advance width="599"/>
  <unicode hex="0031"/>
  <outline>
    <contour>
<<<<<<< HEAD
      <point x="274" y="0" type="line" smooth="no"/>
      <point x="274" y="1356" type="line" smooth="no"/>
      <point x="235" y="1328"/>
      <point x="131" y="1275"/>
      <point x="34" y="1241" type="curve" smooth="no"/>
      <point x="34" y="1349" type="line" smooth="no"/>
      <point x="121" y="1389"/>
      <point x="246" y="1447"/>
      <point x="297" y="1488" type="curve" smooth="no"/>
      <point x="402" y="1488" type="line" smooth="no"/>
      <point x="402" y="0" type="line" smooth="no"/>
=======
      <point x="274" y="0" type="line"/>
      <point x="274" y="1356" type="line"/>
      <point x="235" y="1328"/>
      <point x="131" y="1275"/>
      <point x="34" y="1241" type="curve"/>
      <point x="34" y="1349" type="line"/>
      <point x="121" y="1389"/>
      <point x="246" y="1447"/>
      <point x="297" y="1488" type="curve"/>
      <point x="402" y="1488" type="line"/>
      <point x="402" y="0" type="line"/>
>>>>>>> 91749908f94e59e2ae39cb29b03bd24938bc6ec0
    </contour>
  </outline>
</glyph>
<glyph name="five" format="1">
  <advance width="1195"/>
  <unicode hex="0035"/>
  <outline>
    <contour>
      <point x="563" y="-23" type="curve" smooth="yes"/>
      <point x="388.273" y="-23"/>
      <point x="242.444" y="20"/>
<<<<<<< HEAD
      <point x="129" y="111" type="curve" smooth="no"/>
      <point x="174" y="207" type="line" smooth="no"/>
=======
      <point x="129" y="111" type="curve"/>
      <point x="174" y="207" type="line"/>
>>>>>>> 91749908f94e59e2ae39cb29b03bd24938bc6ec0
      <point x="261.293" y="137"/>
      <point x="382.252" y="82"/>
      <point x="569" y="82" type="curve" smooth="yes"/>
      <point x="787.197" y="82"/>
      <point x="928" y="243.806"/>
      <point x="928" y="478" type="curve" smooth="yes"/>
      <point x="928" y="675.987"/>
      <point x="800.329" y="822.879"/>
      <point x="634.461" y="822.879" type="curve" smooth="yes"/>
      <point x="506.986" y="822.879"/>
      <point x="437.41" y="789.106"/>
<<<<<<< HEAD
      <point x="335" y="711" type="curve" smooth="no"/>
      <point x="210" y="720" type="line" smooth="no"/>
      <point x="244" y="1488" type="line" smooth="no"/>
      <point x="1005" y="1488" type="line" smooth="no"/>
      <point x="992" y="1377" type="line" smooth="no"/>
      <point x="353" y="1377" type="line" smooth="no"/>
      <point x="323" y="832" type="line" smooth="no"/>
=======
      <point x="335" y="711" type="curve"/>
      <point x="210" y="720" type="line"/>
      <point x="244" y="1488" type="line"/>
      <point x="1005" y="1488" type="line"/>
      <point x="992" y="1377" type="line"/>
      <point x="353" y="1377" type="line"/>
      <point x="323" y="832" type="line"/>
>>>>>>> 91749908f94e59e2ae39cb29b03bd24938bc6ec0
      <point x="415.513" y="902.079"/>
      <point x="510.144" y="929.242"/>
      <point x="610" y="931" type="curve" smooth="yes"/>
      <point x="894" y="936"/>
      <point x="1067" y="722"/>
      <point x="1067" y="483" type="curve" smooth="yes"/>
      <point x="1067" y="178.602"/>
      <point x="872.873" y="-23"/>
    </contour>
  </outline>
</glyph>
<glyph name="I" format="1">
  <advance width="514"/>
  <unicode hex="0049"/>
  <outline>
    <contour>
<<<<<<< HEAD
      <point x="193" y="0" type="line" smooth="no"/>
      <point x="193" y="1488" type="line" smooth="no"/>
      <point x="321" y="1488" type="line" smooth="no"/>
      <point x="321" y="0" type="line" smooth="no"/>
=======
      <point x="193" y="0" type="line"/>
      <point x="193" y="1488" type="line"/>
      <point x="321" y="1488" type="line"/>
      <point x="321" y="0" type="line"/>
>>>>>>> 91749908f94e59e2ae39cb29b03bd24938bc6ec0
    </contour>
  </outline>
</glyph>
<glyph name="M" format="1">
  <advance width="1804"/>
<<<<<<< HEAD
  <unicode hex="004d"/>
  <outline>
    <contour>
      <point x="182" y="0" type="line" smooth="no"/>
      <point x="182" y="1488" type="line" smooth="no"/>
      <point x="362" y="1488" type="line" smooth="no"/>
      <point x="913" y="231" type="line" smooth="no"/>
      <point x="1449" y="1488" type="line" smooth="no"/>
      <point x="1622" y="1488" type="line" smooth="no"/>
      <point x="1622" y="0" type="line" smooth="no"/>
      <point x="1495" y="0" type="line" smooth="no"/>
      <point x="1495" y="1001" type="line" smooth="no"/>
      <point x="1502" y="1339" type="line" smooth="no"/>
      <point x="1465" y="1219" type="line" smooth="no"/>
      <point x="976" y="85" type="line" smooth="no"/>
      <point x="836" y="85" type="line" smooth="no"/>
      <point x="341" y="1222" type="line" smooth="no"/>
      <point x="302" y="1342" type="line" smooth="no"/>
      <point x="309" y="996" type="line" smooth="no"/>
      <point x="309" y="0" type="line" smooth="no"/>
    </contour>
  </outline>
=======
  <unicode hex="004D"/>
  <outline>
    <contour>
      <point x="182" y="0" type="line"/>
      <point x="182" y="1488" type="line"/>
      <point x="362" y="1488" type="line"/>
      <point x="913" y="231" type="line"/>
      <point x="1449" y="1488" type="line"/>
      <point x="1622" y="1488" type="line"/>
      <point x="1622" y="0" type="line"/>
      <point x="1495" y="0" type="line"/>
      <point x="1495" y="1001" type="line"/>
      <point x="1502" y="1339" type="line"/>
      <point x="1465" y="1219" type="line"/>
      <point x="976" y="85" type="line"/>
      <point x="836" y="85" type="line"/>
      <point x="341" y="1222" type="line"/>
      <point x="302" y="1342" type="line"/>
      <point x="309" y="996" type="line"/>
      <point x="309" y="0" type="line"/>
    </contour>
  </outline>
>>>>>>> 91749908f94e59e2ae39cb29b03bd24938bc6ec0
</glyph>
<glyph name="R" format="1">
  <advance width="1333"/>
  <unicode hex="0052"/>
  <outline>
    <contour>
<<<<<<< HEAD
      <point x="182" y="0" type="line" smooth="no"/>
      <point x="182" y="1488" type="line" smooth="no"/>
=======
      <point x="182" y="0" type="line"/>
      <point x="182" y="1488" type="line"/>
>>>>>>> 91749908f94e59e2ae39cb29b03bd24938bc6ec0
      <point x="606" y="1488" type="line" smooth="yes"/>
      <point x="951" y="1488"/>
      <point x="1171" y="1446"/>
      <point x="1171" y="1114" type="curve" smooth="yes"/>
      <point x="1171" y="941"/>
      <point x="1091" y="795"/>
<<<<<<< HEAD
      <point x="899" y="746" type="curve" smooth="no"/>
      <point x="899" y="746"/>
      <point x="959" y="623"/>
      <point x="989" y="559" type="curve" smooth="no"/>
      <point x="1233" y="0" type="line" smooth="no"/>
      <point x="1084" y="0" type="line" smooth="no"/>
      <point x="874" y="509" type="line" smooth="yes"/>
      <point x="836" y="601"/>
      <point x="799" y="682"/>
      <point x="780" y="725" type="curve" smooth="no"/>
=======
      <point x="899" y="746" type="curve"/>
      <point x="899" y="746"/>
      <point x="959" y="623"/>
      <point x="989" y="559" type="curve"/>
      <point x="1233" y="0" type="line"/>
      <point x="1084" y="0" type="line"/>
      <point x="874" y="509" type="line" smooth="yes"/>
      <point x="836" y="601"/>
      <point x="799" y="682"/>
      <point x="780" y="725" type="curve"/>
>>>>>>> 91749908f94e59e2ae39cb29b03bd24938bc6ec0
      <point x="760" y="722"/>
      <point x="702" y="722"/>
      <point x="632" y="722" type="curve" smooth="yes"/>
      <point x="493" y="723"/>
      <point x="310" y="728"/>
<<<<<<< HEAD
      <point x="310" y="728" type="curve" smooth="no"/>
      <point x="310" y="0" type="line" smooth="no"/>
=======
      <point x="310" y="728" type="curve"/>
      <point x="310" y="0" type="line"/>
>>>>>>> 91749908f94e59e2ae39cb29b03bd24938bc6ec0
    </contour>
    <contour>
      <point x="687" y="828" type="curve" smooth="yes"/>
      <point x="965" y="828"/>
      <point x="1044" y="930"/>
      <point x="1044" y="1112" type="curve" smooth="yes"/>
      <point x="1044" y="1273"/>
      <point x="971" y="1381"/>
      <point x="729" y="1381" type="curve" smooth="yes"/>
<<<<<<< HEAD
      <point x="310" y="1381" type="line" smooth="no"/>
      <point x="310" y="831" type="line" smooth="no"/>
=======
      <point x="310" y="1381" type="line"/>
      <point x="310" y="831" type="line"/>
>>>>>>> 91749908f94e59e2ae39cb29b03bd24938bc6ec0
      <point x="467" y="829"/>
      <point x="529" y="828"/>
    </contour>
  </outline>
<<<<<<< HEAD
=======
>>>>>>> 91749908f94e59e2ae39cb29b03bd24938bc6ec0
</glyph>
<glyph name="T" format="1">
  <advance width="1082"/>
  <unicode hex="0054"/>
  <outline>
    <contour>
<<<<<<< HEAD
      <point x="476" y="0" type="line" smooth="no"/>
      <point x="476" y="1378" type="line" smooth="no"/>
      <point x="8" y="1378" type="line" smooth="no"/>
      <point x="8" y="1488" type="line" smooth="no"/>
      <point x="1074" y="1488" type="line" smooth="no"/>
      <point x="1074" y="1378" type="line" smooth="no"/>
      <point x="606" y="1378" type="line" smooth="no"/>
      <point x="606" y="0" type="line" smooth="no"/>
=======
      <point x="476" y="0" type="line"/>
      <point x="476" y="1378" type="line"/>
      <point x="8" y="1378" type="line"/>
      <point x="8" y="1488" type="line"/>
      <point x="1074" y="1488" type="line"/>
      <point x="1074" y="1378" type="line"/>
      <point x="606" y="1378" type="line"/>
      <point x="606" y="0" type="line"/>
>>>>>>> 91749908f94e59e2ae39cb29b03bd24938bc6ec0
    </contour>
  </outline>
</glyph>
<glyph name="bracketleft" format="1">
  <advance width="688"/>
<<<<<<< HEAD
  <unicode hex="005b"/>
  <outline>
    <contour>
      <point x="147" y="-264" type="line" smooth="no"/>
      <point x="147" y="1514" type="line" smooth="no"/>
      <point x="595" y="1514" type="line" smooth="no"/>
      <point x="595" y="1414" type="line" smooth="no"/>
      <point x="283" y="1414" type="line" smooth="no"/>
      <point x="283" y="-164" type="line" smooth="no"/>
      <point x="595" y="-164" type="line" smooth="no"/>
      <point x="595" y="-264" type="line" smooth="no"/>
=======
  <unicode hex="005B"/>
  <outline>
    <contour>
      <point x="147" y="-264" type="line"/>
      <point x="147" y="1514" type="line"/>
      <point x="595" y="1514" type="line"/>
      <point x="595" y="1414" type="line"/>
      <point x="283" y="1414" type="line"/>
      <point x="283" y="-164" type="line"/>
      <point x="595" y="-164" type="line"/>
      <point x="595" y="-264" type="line"/>
>>>>>>> 91749908f94e59e2ae39cb29b03bd24938bc6ec0
    </contour>
  </outline>
</glyph>
<glyph name="f" format="1">
  <advance width="638"/>
  <unicode hex="0066"/>
  <outline>
    <contour>
<<<<<<< HEAD
      <point x="216" y="0" type="line" smooth="no"/>
      <point x="216" y="1005" type="line" smooth="no"/>
      <point x="36" y="1005" type="line" smooth="no"/>
      <point x="44" y="1082" type="line" smooth="no"/>
      <point x="216" y="1096" type="line" smooth="no"/>
=======
      <point x="216" y="0" type="line"/>
      <point x="216" y="1005" type="line"/>
      <point x="36" y="1005" type="line"/>
      <point x="44" y="1082" type="line"/>
      <point x="216" y="1096" type="line"/>
>>>>>>> 91749908f94e59e2ae39cb29b03bd24938bc6ec0
      <point x="216" y="1137" type="line" smooth="yes"/>
      <point x="216" y="1428.46"/>
      <point x="318.457" y="1549.47"/>
      <point x="523.371" y="1549.47" type="curve" smooth="yes"/>
      <point x="574.677" y="1549.47"/>
      <point x="616.105" y="1542.56"/>
<<<<<<< HEAD
      <point x="676" y="1534" type="curve" smooth="no"/>
      <point x="667" y="1452" type="line" smooth="no"/>
=======
      <point x="676" y="1534" type="curve"/>
      <point x="667" y="1452" type="line"/>
>>>>>>> 91749908f94e59e2ae39cb29b03bd24938bc6ec0
      <point x="622.973" y="1457.15"/>
      <point x="580.786" y="1463.28"/>
      <point x="536.613" y="1463.28" type="curve" smooth="yes"/>
      <point x="381.293" y="1463.28"/>
      <point x="340" y="1372.22"/>
      <point x="340" y="1131" type="curve" smooth="yes"/>
<<<<<<< HEAD
      <point x="340" y="1096" type="line" smooth="no"/>
      <point x="607" y="1096" type="line" smooth="no"/>
      <point x="607" y="1005" type="line" smooth="no"/>
      <point x="340" y="1005" type="line" smooth="no"/>
      <point x="340" y="0" type="line" smooth="no"/>
=======
      <point x="340" y="1096" type="line"/>
      <point x="607" y="1096" type="line"/>
      <point x="607" y="1005" type="line"/>
      <point x="340" y="1005" type="line"/>
      <point x="340" y="0" type="line"/>
>>>>>>> 91749908f94e59e2ae39cb29b03bd24938bc6ec0
    </contour>
  </outline>
</glyph>
<glyph name="p" format="1">
  <advance width="1175"/>
  <unicode hex="0070"/>
  <outline>
    <contour>
<<<<<<< HEAD
      <point x="147" y="-488" type="line" smooth="no"/>
      <point x="147" y="1096" type="line" smooth="no"/>
      <point x="258" y="1096" type="line" smooth="no"/>
      <point x="269" y="940" type="line" smooth="no"/>
=======
      <point x="147" y="-488" type="line"/>
      <point x="147" y="1096" type="line"/>
      <point x="258" y="1096" type="line"/>
      <point x="269" y="940" type="line"/>
>>>>>>> 91749908f94e59e2ae39cb29b03bd24938bc6ec0
      <point x="364" y="1049"/>
      <point x="461" y="1116"/>
      <point x="611" y="1116" type="curve" smooth="yes"/>
      <point x="934" y="1116"/>
      <point x="1078" y="881"/>
      <point x="1078" y="535" type="curve" smooth="yes"/>
      <point x="1078" y="213"/>
      <point x="907" y="-24"/>
      <point x="622" y="-24" type="curve" smooth="yes"/>
      <point x="476" y="-24"/>
      <point x="339" y="52"/>
<<<<<<< HEAD
      <point x="266" y="161" type="curve" smooth="no"/>
      <point x="269" y="87"/>
      <point x="271" y="7"/>
      <point x="271" y="-81" type="curve" smooth="yes"/>
      <point x="271" y="-479" type="line" smooth="no"/>
=======
      <point x="266" y="161" type="curve"/>
      <point x="269" y="87"/>
      <point x="271" y="7"/>
      <point x="271" y="-81" type="curve" smooth="yes"/>
      <point x="271" y="-479" type="line"/>
>>>>>>> 91749908f94e59e2ae39cb29b03bd24938bc6ec0
    </contour>
    <contour>
      <point x="614" y="78" type="curve" smooth="yes"/>
      <point x="850" y="78"/>
      <point x="948" y="321"/>
      <point x="948" y="544" type="curve" smooth="yes"/>
      <point x="948" y="768"/>
      <point x="853" y="1011"/>
      <point x="613" y="1011" type="curve" smooth="yes"/>
      <point x="358" y="1011"/>
      <point x="270" y="818"/>
      <point x="270" y="563" type="curve" smooth="yes"/>
      <point x="270" y="273"/>
      <point x="349" y="78"/>
    </contour>
  </outline>
</glyph>
<glyph name="x" format="1">
  <advance width="1012"/>
  <unicode hex="0078"/>
  <outline>
    <contour>
<<<<<<< HEAD
      <point x="37" y="0" type="line" smooth="no"/>
      <point x="446" y="555" type="line" smooth="no"/>
      <point x="50" y="1096" type="line" smooth="no"/>
      <point x="188" y="1096" type="line" smooth="no"/>
      <point x="508" y="644" type="line" smooth="no"/>
      <point x="826" y="1096" type="line" smooth="no"/>
      <point x="967" y="1096" type="line" smooth="no"/>
      <point x="572" y="551" type="line" smooth="no"/>
      <point x="975" y="0" type="line" smooth="no"/>
      <point x="842" y="0" type="line" smooth="no"/>
      <point x="509" y="465" type="line" smooth="no"/>
      <point x="177" y="0" type="line" smooth="no"/>
    </contour>
  </outline>
=======
      <point x="37" y="0" type="line"/>
      <point x="446" y="555" type="line"/>
      <point x="50" y="1096" type="line"/>
      <point x="188" y="1096" type="line"/>
      <point x="508" y="644" type="line"/>
      <point x="826" y="1096" type="line"/>
      <point x="967" y="1096" type="line"/>
      <point x="572" y="551" type="line"/>
      <point x="975" y="0" type="line"/>
      <point x="842" y="0" type="line"/>
      <point x="509" y="465" type="line"/>
      <point x="177" y="0" type="line"/>
    </contour>
  </outline>
>>>>>>> 91749908f94e59e2ae39cb29b03bd24938bc6ec0
</glyph>
<glyph name="braceleft" format="1">
  <advance width="709"/>
<<<<<<< HEAD
  <unicode hex="007b"/>
  <outline>
    <contour>
      <point x="613" y="-277" type="line" smooth="no"/>
=======
  <unicode hex="007B"/>
  <outline>
    <contour>
      <point x="613" y="-277" type="line"/>
>>>>>>> 91749908f94e59e2ae39cb29b03bd24938bc6ec0
      <point x="377" y="-276"/>
      <point x="294" y="-135"/>
      <point x="294" y="95" type="curve" smooth="yes"/>
      <point x="294" y="255" type="line" smooth="yes"/>
      <point x="294" y="436"/>
      <point x="275" y="590"/>
<<<<<<< HEAD
      <point x="86" y="590" type="curve" smooth="no"/>
      <point x="86" y="689" type="line" smooth="no"/>
=======
      <point x="86" y="590" type="curve"/>
      <point x="86" y="689" type="line"/>
>>>>>>> 91749908f94e59e2ae39cb29b03bd24938bc6ec0
      <point x="308" y="694"/>
      <point x="294" y="820"/>
      <point x="294" y="1025" type="curve" smooth="yes"/>
      <point x="294" y="1236" type="line" smooth="yes"/>
      <point x="294" y="1431"/>
      <point x="409" y="1557"/>
<<<<<<< HEAD
      <point x="613" y="1557" type="curve" smooth="no"/>
      <point x="613" y="1461" type="line" smooth="no"/>
=======
      <point x="613" y="1557" type="curve"/>
      <point x="613" y="1461" type="line"/>
>>>>>>> 91749908f94e59e2ae39cb29b03bd24938bc6ec0
      <point x="464" y="1459"/>
      <point x="420" y="1385"/>
      <point x="420" y="1197" type="curve" smooth="yes"/>
      <point x="420" y="934" type="line" smooth="yes"/>
      <point x="420" y="823"/>
      <point x="365" y="727"/>
<<<<<<< HEAD
      <point x="247" y="637" type="curve" smooth="no"/>
=======
      <point x="247" y="637" type="curve"/>
>>>>>>> 91749908f94e59e2ae39cb29b03bd24938bc6ec0
      <point x="379" y="584"/>
      <point x="420" y="448"/>
      <point x="420" y="342" type="curve" smooth="yes"/>
      <point x="420" y="82" type="line" smooth="yes"/>
      <point x="420" y="-113"/>
      <point x="466" y="-179"/>
<<<<<<< HEAD
      <point x="613" y="-181" type="curve" smooth="no"/>
=======
      <point x="613" y="-181" type="curve"/>
>>>>>>> 91749908f94e59e2ae39cb29b03bd24938bc6ec0
    </contour>
  </outline>
</glyph>
<glyph name="sterling" format="1">
  <advance width="1124"/>
<<<<<<< HEAD
  <unicode hex="00a3"/>
  <outline>
    <contour>
      <point x="101" y="0" type="line" smooth="no"/>
      <point x="92" y="105" type="line" smooth="no"/>
      <point x="230" y="153"/>
      <point x="277" y="275"/>
      <point x="277" y="436" type="curve" smooth="yes"/>
      <point x="277" y="696" type="line" smooth="no"/>
      <point x="91" y="696" type="line" smooth="no"/>
      <point x="91" y="800" type="line" smooth="no"/>
      <point x="277" y="800" type="line" smooth="no"/>
=======
  <unicode hex="00A3"/>
  <outline>
    <contour>
      <point x="101" y="0" type="line"/>
      <point x="92" y="105" type="line"/>
      <point x="230" y="153"/>
      <point x="277" y="275"/>
      <point x="277" y="436" type="curve" smooth="yes"/>
      <point x="277" y="696" type="line"/>
      <point x="91" y="696" type="line"/>
      <point x="91" y="800" type="line"/>
      <point x="277" y="800" type="line"/>
>>>>>>> 91749908f94e59e2ae39cb29b03bd24938bc6ec0
      <point x="277" y="890" type="line" smooth="yes"/>
      <point x="277" y="1189.48"/>
      <point x="323" y="1515"/>
      <point x="693" y="1515" type="curve" smooth="yes"/>
      <point x="839" y="1515"/>
      <point x="952" y="1461.57"/>
<<<<<<< HEAD
      <point x="1037" y="1390" type="curve" smooth="no"/>
      <point x="971" y="1303" type="line" smooth="no"/>
=======
      <point x="1037" y="1390" type="curve"/>
      <point x="971" y="1303" type="line"/>
>>>>>>> 91749908f94e59e2ae39cb29b03bd24938bc6ec0
      <point x="883" y="1373.64"/>
      <point x="793" y="1407"/>
      <point x="690" y="1407" type="curve" smooth="yes"/>
      <point x="467.989" y="1407"/>
      <point x="405" y="1234.8"/>
      <point x="405" y="977" type="curve" smooth="yes"/>
<<<<<<< HEAD
      <point x="405" y="800" type="line" smooth="no"/>
      <point x="832" y="800" type="line" smooth="no"/>
      <point x="832" y="695" type="line" smooth="no"/>
      <point x="405" y="695" type="line" smooth="no"/>
      <point x="405" y="526" type="line" smooth="yes"/>
      <point x="405" y="334.426"/>
      <point x="392.181" y="188.663"/>
      <point x="257" y="96" type="curve" smooth="no"/>
      <point x="385.045" y="102.75"/>
      <point x="390.865" y="114"/>
      <point x="516" y="114" type="curve" smooth="yes"/>
      <point x="1041" y="114" type="line" smooth="no"/>
      <point x="1055" y="0" type="line" smooth="no"/>
=======
      <point x="405" y="800" type="line"/>
      <point x="832" y="800" type="line"/>
      <point x="832" y="695" type="line"/>
      <point x="405" y="695" type="line"/>
      <point x="405" y="526" type="line" smooth="yes"/>
      <point x="405" y="334.426"/>
      <point x="392.181" y="188.663"/>
      <point x="257" y="96" type="curve"/>
      <point x="385.045" y="102.75"/>
      <point x="390.865" y="114"/>
      <point x="516" y="114" type="curve" smooth="yes"/>
      <point x="1041" y="114" type="line"/>
      <point x="1055" y="0" type="line"/>
>>>>>>> 91749908f94e59e2ae39cb29b03bd24938bc6ec0
    </contour>
  </outline>
</glyph>
<glyph name="dieresis" format="1">
  <advance width="769"/>
<<<<<<< HEAD
  <unicode hex="00a8"/>
  <outline>
    <contour>
      <point x="136" y="1266" type="line" smooth="no"/>
      <point x="136" y="1443" type="line" smooth="no"/>
      <point x="272" y="1443" type="line" smooth="no"/>
      <point x="272" y="1266" type="line" smooth="no"/>
    </contour>
    <contour>
      <point x="512" y="1266" type="line" smooth="no"/>
      <point x="512" y="1443" type="line" smooth="no"/>
      <point x="649" y="1443" type="line" smooth="no"/>
      <point x="649" y="1266" type="line" smooth="no"/>
=======
  <unicode hex="00A8"/>
  <outline>
    <contour>
      <point x="136" y="1266" type="line"/>
      <point x="136" y="1443" type="line"/>
      <point x="272" y="1443" type="line"/>
      <point x="272" y="1266" type="line"/>
    </contour>
    <contour>
      <point x="512" y="1266" type="line"/>
      <point x="512" y="1443" type="line"/>
      <point x="649" y="1443" type="line"/>
      <point x="649" y="1266" type="line"/>
>>>>>>> 91749908f94e59e2ae39cb29b03bd24938bc6ec0
    </contour>
  </outline>
</glyph>
<glyph name="macron" format="1">
  <advance width="1131"/>
<<<<<<< HEAD
  <unicode hex="00af"/>
  <outline>
    <contour>
      <point x="256.5" y="1270" type="line" smooth="no"/>
      <point x="256.5" y="1376" type="line" smooth="no"/>
      <point x="874.5" y="1376" type="line" smooth="no"/>
      <point x="874.5" y="1270" type="line" smooth="no"/>
=======
  <unicode hex="00AF"/>
  <outline>
    <contour>
      <point x="256.5" y="1270" type="line"/>
      <point x="256.5" y="1376" type="line"/>
      <point x="874.5" y="1376" type="line"/>
      <point x="874.5" y="1270" type="line"/>
>>>>>>> 91749908f94e59e2ae39cb29b03bd24938bc6ec0
    </contour>
  </outline>
</glyph>
<glyph name="plusminus" format="1">
  <advance width="1163"/>
<<<<<<< HEAD
  <unicode hex="00b1"/>
  <outline>
    <contour>
      <point x="526" y="215" type="line" smooth="no"/>
      <point x="526" y="654" type="line" smooth="no"/>
      <point x="95" y="654" type="line" smooth="no"/>
      <point x="95" y="765" type="line" smooth="no"/>
      <point x="525" y="765" type="line" smooth="no"/>
      <point x="525" y="1213" type="line" smooth="no"/>
      <point x="632" y="1213" type="line" smooth="no"/>
      <point x="632" y="765" type="line" smooth="no"/>
      <point x="1067" y="765" type="line" smooth="no"/>
      <point x="1067" y="654" type="line" smooth="no"/>
      <point x="635" y="654" type="line" smooth="no"/>
      <point x="635" y="215" type="line" smooth="no"/>
    </contour>
    <contour>
      <point x="95" y="0" type="line" smooth="no"/>
      <point x="95" y="121" type="line" smooth="no"/>
      <point x="1070" y="121" type="line" smooth="no"/>
      <point x="1070" y="0" type="line" smooth="no"/>
=======
  <unicode hex="00B1"/>
  <outline>
    <contour>
      <point x="526" y="215" type="line"/>
      <point x="526" y="654" type="line"/>
      <point x="95" y="654" type="line"/>
      <point x="95" y="765" type="line"/>
      <point x="525" y="765" type="line"/>
      <point x="525" y="1213" type="line"/>
      <point x="632" y="1213" type="line"/>
      <point x="632" y="765" type="line"/>
      <point x="1067" y="765" type="line"/>
      <point x="1067" y="654" type="line"/>
      <point x="635" y="654" type="line"/>
      <point x="635" y="215" type="line"/>
    </contour>
    <contour>
      <point x="95" y="0" type="line"/>
      <point x="95" y="121" type="line"/>
      <point x="1070" y="121" type="line"/>
      <point x="1070" y="0" type="line"/>
>>>>>>> 91749908f94e59e2ae39cb29b03bd24938bc6ec0
    </contour>
  </outline>
</glyph>
<glyph name="acute" format="1">
  <advance width="648"/>
<<<<<<< HEAD
  <unicode hex="00b4"/>
  <outline>
    <contour>
      <point x="126" y="1287" type="line" smooth="no"/>
      <point x="320" y="1674" type="line" smooth="no"/>
      <point x="474" y="1674" type="line" smooth="no"/>
      <point x="201" y="1287" type="line" smooth="no"/>
=======
  <unicode hex="00B4"/>
  <outline>
    <contour>
      <point x="126" y="1287" type="line"/>
      <point x="320" y="1674" type="line"/>
      <point x="474" y="1674" type="line"/>
      <point x="201" y="1287" type="line"/>
>>>>>>> 91749908f94e59e2ae39cb29b03bd24938bc6ec0
    </contour>
  </outline>
</glyph>
<glyph name="onehalf" format="1">
  <advance width="1493"/>
<<<<<<< HEAD
  <unicode hex="00bd"/>
  <outline>
    <contour>
      <point x="149" y="681" type="line" smooth="no"/>
      <point x="149" y="747" type="line" smooth="no"/>
      <point x="253" y="747" type="line" smooth="no"/>
      <point x="253" y="1416" type="line" smooth="no"/>
      <point x="218" y="1390"/>
      <point x="198" y="1379"/>
      <point x="139" y="1344" type="curve" smooth="no"/>
      <point x="139" y="1425" type="line" smooth="no"/>
      <point x="158" y="1436"/>
      <point x="231" y="1477"/>
      <point x="261" y="1514" type="curve" smooth="no"/>
      <point x="346" y="1514" type="line" smooth="no"/>
      <point x="346" y="747" type="line" smooth="no"/>
      <point x="453" y="747" type="line" smooth="no"/>
      <point x="453" y="681" type="line" smooth="no"/>
    </contour>
    <contour>
      <point x="892" y="0" type="line" smooth="no"/>
      <point x="892" y="77" type="line" smooth="no"/>
=======
  <unicode hex="00BD"/>
  <outline>
    <contour>
      <point x="149" y="681" type="line"/>
      <point x="149" y="747" type="line"/>
      <point x="253" y="747" type="line"/>
      <point x="253" y="1416" type="line"/>
      <point x="218" y="1390"/>
      <point x="198" y="1379"/>
      <point x="139" y="1344" type="curve"/>
      <point x="139" y="1425" type="line"/>
      <point x="158" y="1436"/>
      <point x="231" y="1477"/>
      <point x="261" y="1514" type="curve"/>
      <point x="346" y="1514" type="line"/>
      <point x="346" y="747" type="line"/>
      <point x="453" y="747" type="line"/>
      <point x="453" y="681" type="line"/>
    </contour>
    <contour>
      <point x="892" y="0" type="line"/>
      <point x="892" y="77" type="line"/>
>>>>>>> 91749908f94e59e2ae39cb29b03bd24938bc6ec0
      <point x="1248" y="458"/>
      <point x="1349" y="574"/>
      <point x="1349" y="679" type="curve" smooth="yes"/>
      <point x="1349" y="777"/>
      <point x="1269" y="832"/>
      <point x="1192" y="832" type="curve" smooth="yes"/>
      <point x="1122" y="832"/>
      <point x="1055" y="807"/>
<<<<<<< HEAD
      <point x="991" y="704" type="curve" smooth="no"/>
      <point x="909" y="735" type="line" smooth="no"/>
=======
      <point x="991" y="704" type="curve"/>
      <point x="909" y="735" type="line"/>
>>>>>>> 91749908f94e59e2ae39cb29b03bd24938bc6ec0
      <point x="960" y="857"/>
      <point x="1073" y="920"/>
      <point x="1189" y="920" type="curve" smooth="yes"/>
      <point x="1326" y="920"/>
      <point x="1452" y="831.514"/>
      <point x="1452" y="671" type="curve" smooth="yes"/>
      <point x="1452" y="492"/>
      <point x="1271" y="347"/>
<<<<<<< HEAD
      <point x="1021" y="82" type="curve" smooth="no"/>
      <point x="1435" y="82" type="line" smooth="no"/>
      <point x="1443" y="0" type="line" smooth="no"/>
    </contour>
    <contour>
      <point x="270" y="0" type="line" smooth="no"/>
      <point x="1158" y="1514" type="line" smooth="no"/>
      <point x="1251" y="1514" type="line" smooth="no"/>
      <point x="370" y="0" type="line" smooth="no"/>
=======
      <point x="1021" y="82" type="curve"/>
      <point x="1435" y="82" type="line"/>
      <point x="1443" y="0" type="line"/>
    </contour>
    <contour>
      <point x="270" y="0" type="line"/>
      <point x="1158" y="1514" type="line"/>
      <point x="1251" y="1514" type="line"/>
      <point x="370" y="0" type="line"/>
>>>>>>> 91749908f94e59e2ae39cb29b03bd24938bc6ec0
    </contour>
  </outline>
</glyph>
<glyph name="multiply" format="1">
  <advance width="1101"/>
<<<<<<< HEAD
  <unicode hex="00d7"/>
  <outline>
    <contour>
      <point x="864" y="261" type="line" smooth="no"/>
      <point x="557" y="569" type="line" smooth="no"/>
      <point x="249" y="262" type="line" smooth="no"/>
      <point x="172" y="339" type="line" smooth="no"/>
      <point x="480" y="646" type="line" smooth="no"/>
      <point x="173" y="954" type="line" smooth="no"/>
      <point x="250" y="1031" type="line" smooth="no"/>
      <point x="557" y="723" type="line" smooth="no"/>
      <point x="865" y="1030" type="line" smooth="no"/>
      <point x="942" y="953" type="line" smooth="no"/>
      <point x="634" y="646" type="line" smooth="no"/>
      <point x="941" y="338" type="line" smooth="no"/>
=======
  <unicode hex="00D7"/>
  <outline>
    <contour>
      <point x="864" y="261" type="line"/>
      <point x="557" y="569" type="line"/>
      <point x="249" y="262" type="line"/>
      <point x="172" y="339" type="line"/>
      <point x="480" y="646" type="line"/>
      <point x="173" y="954" type="line"/>
      <point x="250" y="1031" type="line"/>
      <point x="557" y="723" type="line"/>
      <point x="865" y="1030" type="line"/>
      <point x="942" y="953" type="line"/>
      <point x="634" y="646" type="line"/>
      <point x="941" y="338" type="line"/>
>>>>>>> 91749908f94e59e2ae39cb29b03bd24938bc6ec0
    </contour>
  </outline>
</glyph>
<glyph name="kgreenlandic" format="1">
  <advance width="986"/>
  <unicode hex="0138"/>
  <outline>
    <contour>
<<<<<<< HEAD
      <point x="149" y="0" type="line" smooth="no"/>
      <point x="149" y="1096" type="line" smooth="no"/>
      <point x="272" y="1096" type="line" smooth="no"/>
      <point x="272" y="541" type="line" smooth="no"/>
=======
      <point x="149" y="0" type="line"/>
      <point x="149" y="1096" type="line"/>
      <point x="272" y="1096" type="line"/>
      <point x="272" y="541" type="line"/>
>>>>>>> 91749908f94e59e2ae39cb29b03bd24938bc6ec0
      <point x="288" y="561"/>
      <point x="380" y="659"/>
      <point x="398" y="680" type="curve" smooth="yes"/>
      <point x="526" y="823.301"/>
      <point x="777" y="1096"/>
<<<<<<< HEAD
      <point x="777" y="1096" type="curve" smooth="no"/>
      <point x="944" y="1096" type="line" smooth="no"/>
      <point x="485" y="611" type="line" smooth="no"/>
      <point x="976" y="0" type="line" smooth="no"/>
      <point x="819" y="0" type="line" smooth="no"/>
      <point x="400" y="541" type="line" smooth="no"/>
      <point x="272" y="423" type="line" smooth="no"/>
      <point x="272" y="0" type="line" smooth="no"/>
=======
      <point x="777" y="1096" type="curve"/>
      <point x="944" y="1096" type="line"/>
      <point x="485" y="611" type="line"/>
      <point x="976" y="0" type="line"/>
      <point x="819" y="0" type="line"/>
      <point x="400" y="541" type="line"/>
      <point x="272" y="423" type="line"/>
      <point x="272" y="0" type="line"/>
>>>>>>> 91749908f94e59e2ae39cb29b03bd24938bc6ec0
    </contour>
  </outline>
</glyph>
<glyph name="Lcaron" format="1">
  <advance width="998"/>
<<<<<<< HEAD
  <unicode hex="013d"/>
  <outline>
    <component base="L"/>
    <contour>
      <point x="1133" y="1064" type="line" smooth="no"/>
      <point x="1271" y="1514" type="line" smooth="no"/>
      <point x="1407" y="1514" type="line" smooth="no"/>
      <point x="1237" y="1064" type="line" smooth="no"/>
=======
  <unicode hex="013D"/>
  <outline>
    <component base="L"/>
    <contour>
      <point x="1133" y="1064" type="line"/>
      <point x="1271" y="1514" type="line"/>
      <point x="1407" y="1514" type="line"/>
      <point x="1237" y="1064" type="line"/>
>>>>>>> 91749908f94e59e2ae39cb29b03bd24938bc6ec0
    </contour>
  </outline>
</glyph>
<glyph name="dotaccent" format="1">
  <advance width="352"/>
<<<<<<< HEAD
  <unicode hex="02d9"/>
  <outline>
    <contour>
      <point x="106" y="1331" type="line" smooth="no"/>
      <point x="106" y="1516" type="line" smooth="no"/>
      <point x="259" y="1516" type="line" smooth="no"/>
      <point x="259" y="1331" type="line" smooth="no"/>
=======
  <unicode hex="02D9"/>
  <outline>
    <contour>
      <point x="106" y="1331" type="line"/>
      <point x="106" y="1516" type="line"/>
      <point x="259" y="1516" type="line"/>
      <point x="259" y="1331" type="line"/>
>>>>>>> 91749908f94e59e2ae39cb29b03bd24938bc6ec0
    </contour>
  </outline>
</glyph>
<glyph name="quoteleft" format="1">
  <advance width="541"/>
  <unicode hex="2018"/>
  <outline>
    <contour>
<<<<<<< HEAD
      <point x="104" y="1161" type="line" smooth="no"/>
      <point x="344" y="1619" type="line" smooth="no"/>
      <point x="420" y="1619" type="line" smooth="no"/>
      <point x="258" y="1161" type="line" smooth="no"/>
=======
      <point x="104" y="1161" type="line"/>
      <point x="344" y="1619" type="line"/>
      <point x="420" y="1619" type="line"/>
      <point x="258" y="1161" type="line"/>
>>>>>>> 91749908f94e59e2ae39cb29b03bd24938bc6ec0
    </contour>
  </outline>
</glyph>
<glyph name="quotedblbase" format="1">
  <advance width="734"/>
<<<<<<< HEAD
  <unicode hex="201e"/>
  <outline>
    <contour>
      <point x="111" y="-240" type="line" smooth="no"/>
      <point x="192" y="218" type="line" smooth="no"/>
      <point x="321" y="218" type="line" smooth="no"/>
      <point x="204" y="-240" type="line" smooth="no"/>
    </contour>
    <contour>
      <point x="409" y="-240" type="line" smooth="no"/>
      <point x="487" y="218" type="line" smooth="no"/>
      <point x="621" y="218" type="line" smooth="no"/>
      <point x="498" y="-240" type="line" smooth="no"/>
=======
  <unicode hex="201E"/>
  <outline>
    <contour>
      <point x="111" y="-240" type="line"/>
      <point x="192" y="218" type="line"/>
      <point x="321" y="218" type="line"/>
      <point x="204" y="-240" type="line"/>
    </contour>
    <contour>
      <point x="409" y="-240" type="line"/>
      <point x="487" y="218" type="line"/>
      <point x="621" y="218" type="line"/>
      <point x="498" y="-240" type="line"/>
>>>>>>> 91749908f94e59e2ae39cb29b03bd24938bc6ec0
    </contour>
  </outline>
</glyph>
